<?xml version="1.0" encoding="UTF-8"?>
<svg id="Layer_2" data-name="Layer 2" xmlns="http://www.w3.org/2000/svg" viewBox="0 0 2867.05 684.62">
  <defs>
    <style>
      .cls-1 {
        fill: #ff6d00;
      }
    </style>
  </defs>
  <g id="Layer_1-2" data-name="Layer 1">
    <g>
      <g>
        <path d="M122.6,91.72v503.31H0V91.72h122.6Z"/>
        <path d="M524.82,506.13h-187.85l-30.11,88.9h-128.34L360.64,91.72h141.96l182.11,503.31h-129.77l-30.11-88.9ZM493.28,411.49l-62.38-184.26-61.66,184.26h124.04Z"/>
        <path class="cls-1" d="M1190.17,595.04h-122.6l-205.05-310.45v310.45h-122.6V91.72h122.6l205.05,311.88V91.72h122.6v503.31Z"/>
        <path class="cls-1" d="M1613.18,250.89c-9.08-16.72-22.11-29.51-39.08-38.36-16.97-8.84-36.92-13.26-59.87-13.26-39.68,0-71.46,13.03-95.36,39.08-23.9,26.06-35.85,60.83-35.85,104.32,0,46.37,12.55,82.57,37.64,108.62,25.09,26.06,59.62,39.08,103.6,39.08,30.11,0,55.57-7.64,76.36-22.94,20.79-15.29,35.96-37.28,45.53-65.96h-155.58v-90.34h266.71v114c-9.08,30.6-24.5,59.04-46.24,85.32-21.76,26.3-49.36,47.57-82.81,63.81-33.46,16.25-71.23,24.38-113.28,24.38-49.72,0-94.05-10.87-133-32.62-38.96-21.75-69.31-51.98-91.06-90.7-21.76-38.72-32.62-82.92-32.62-132.64s10.87-94.04,32.62-133c21.75-38.95,51.98-69.3,90.7-91.05,38.72-21.75,82.92-32.62,132.64-32.62,60.23,0,111.01,14.58,152.36,43.73,41.34,29.16,68.71,69.55,82.1,121.17h-135.51Z"/>
        <path class="cls-1" d="M1948,189.95v101.81h164.19v94.64h-164.19v110.41h185.7v98.23h-308.3V91.72h308.3v98.23h-185.7Z"/>
      </g>
      <g>
        <path class="cls-1" d="M2676.11,467.91l20.56,214.97c64.13-8.99,122.61-35.56,170.37-74.75l-144.33-160.68c-18.55-20.65-49.25-7.18-46.61,20.46Z"/>
        <path d="M2618.02,208.92L2598.04,0c-62.67,9.16-119.85,35.16-166.84,73.27l140.21,156.1c18.55,20.65,49.25,7.18,46.61-20.46Z"/>
        <path class="cls-1" d="M2517.57,367.46l-211.05,20.19c8.53,63.52,34.31,121.54,72.53,169.22l158.98-142.8c20.65-18.55,7.18-49.25-20.46-46.61Z"/>
        <path class="cls-1" d="M2537.05,268.2l-163.73-135.14c-36.86,48.6-61.13,107.25-67.97,171.13l213.21,11.43c27.72,1.49,39.9-29.75,18.49-47.42Z"/>
        <path class="cls-1" d="M2578.13,451.33l-136.92,165.89c49.09,36.92,108.35,61.03,172.83,67.39l11.52-214.79c1.49-27.72-29.75-39.9-47.42-18.49Z"/>
        <path d="M2670.21,285.23c-30.98-12.08-65.88,3.24-77.96,34.22-12.08,30.98,3.24,65.88,34.22,77.96,30.98,12.08,65.88-3.24,77.96-34.22,12.08-30.98-3.24-65.88-34.22-77.96Z"/>
      </g>
    </g>
  </g>
</svg>